<svg width="512" height="512" viewBox="0 0 512 512" fill="none" xmlns="http://www.w3.org/2000/svg">
    <rect width="512" height="512" rx="128" fill="#ECFBFF"/>
    <g clip-path="url(#clip0_276_18895)">
        <g clip-path="url(#clip1_276_18895)">
            <path d="M211.393 383.526H65.3577C61.7015 383.526 59.0449 380.059 59.9918 376.539L70.5131 337.323C70.5131 337.323 138.296 317.807 201.424 278.093L211.419 383.526H211.393Z" fill="#1E5DA5"/>
            <path d="M471.453 383.526H349.038L279.939 208.329C296.563 185.004 307.321 158.659 307.426 129.136C308.189 129.582 308.741 130.108 309.057 130.554C309.267 130.764 309.373 131.001 309.373 131.001L476.003 374.858C478.607 378.535 475.898 383.526 471.453 383.526Z" fill="#36BBA6"/>
            <path d="M248.454 128.164C247.797 159.08 227.491 187.185 195.111 211.481L187.299 128.164H248.454Z" fill="#2C79AB"/>
            <path d="M307.426 129.136C307.321 158.633 296.563 185.005 279.939 208.329L248.428 128.164H304.269C305.585 128.164 306.663 128.611 307.426 129.136Z" fill="#4DC6E7"/>
            <path d="M105.154 207.567L89.6093 265.826C89.6093 265.826 89.6093 265.931 89.5041 265.931C2.38792 298.029 -103.745 315.181 -179.893 312.686L-127.208 255.845C-118.633 255.53 13.8035 250.434 105.154 207.567Z" fill="#A972AE"/>
            <path d="M89.5041 265.931L70.4869 337.324C70.4869 337.324 -57.7674 383.185 -235.656 383.158C-239.286 383.158 -241.206 378.798 -238.733 376.172L-179.893 312.712C-103.745 315.207 2.388 298.055 89.5041 265.958V265.931Z" fill="#CFB2D1"/>
            <path d="M124.54 130.712C80.7187 190.048 -42.4065 198.532 -69.8144 199.688C-73.3653 199.845 -76.6795 201.395 -79.0994 203.995L-127.182 255.845C-118.607 255.53 13.8297 250.434 105.181 207.567C144.609 189.023 176.436 163.414 187.299 128.164H129.485C127.512 128.164 125.723 129.11 124.566 130.712H124.54Z" fill="#004364"/>
            <path d="M195.112 211.481C167.309 232.521 130.485 250.854 89.6357 265.826L105.181 207.567C144.609 189.023 176.436 163.414 187.299 128.164L195.112 211.481Z" fill="#3751A2"/>
            <path d="M349.038 383.526H211.393L201.398 278.093C231.173 259.444 259.949 236.119 279.939 208.329L349.038 383.526Z" fill="#007979"/>
            <path d="M279.939 208.329C259.949 236.093 231.173 259.417 201.398 278.093L195.085 211.481C227.464 187.185 247.77 159.08 248.428 128.164L279.939 208.329Z" fill="#0094C5"/>
            <path d="M201.398 278.093C138.296 317.808 70.4868 337.324 70.4868 337.324L89.504 265.931L89.6092 265.826C130.458 250.855 167.283 232.521 195.085 211.481L201.398 278.093Z" fill="#2070AD"/>
        </g>
    </g>
    <defs>
        <clipPath id="clip0_276_18895">
            <rect width="478" height="478" fill="white" transform="translate(0 18)"/>
        </clipPath>
        <clipPath id="clip1_276_18895">
            <rect width="717.934" height="257.672" fill="white" transform="translate(-239.934 128.164)"/>
        </clipPath>
    </defs>
</svg>
