<svg width="1440" height="734" viewBox="0 0 1440 734" fill="none" xmlns="http://www.w3.org/2000/svg">
    <g opacity="0.15" clip-path="url(#clip0_262_432)">
        <path d="M984.5 729.211H568.348C557.946 729.211 550.352 719.319 553.048 709.238L583.003 597.084C583.003 597.084 776.177 541.235 956.025 427.711L984.5 729.211Z" fill="#00726C"/>
        <path d="M1726.13 729.211H1377.66L1181 229.213C1228.29 162.65 1258.93 87.43 1259.23 3.21094C1261.39 4.46397 1262.95 5.98282 1263.86 7.23585C1264.47 7.84338 1264.77 8.48886 1264.77 8.48886L1739.1 704.454C1746.53 714.972 1738.79 729.211 1726.13 729.211Z" fill="#34AD96"/>
        <path d="M1091 0.210938C1089.14 88.1681 1031.33 168.102 939.252 237.211L917 0.210938H1091Z" fill="#008E8A"/>
        <path d="M1259 2.97341C1258.7 86.9077 1228.08 161.873 1180.73 228.211L1091 0.210938H1250.01C1253.73 0.210938 1256.8 1.45972 1258.96 2.97341H1259Z" fill="#41CEB3"/>
        <path d="M682.962 226.711L638.657 392.585C638.657 392.585 638.657 392.888 638.353 392.888C389.885 484.313 87.1952 533.15 -130 526.027L20.2811 364.169C44.7517 363.26 422.411 348.711 683 226.711H682.962Z" fill="#008E8A"/>
        <path d="M638 393.211L583.795 596.933C583.795 596.933 218.152 727.863 -289.061 727.711C-299.355 727.711 -304.862 715.294 -297.873 707.737L-130.132 526.646C86.9903 533.785 389.578 484.839 637.962 393.211H638Z" fill="#34AD96"/>
        <path d="M738.018 7.42801C612.997 176.839 261.797 201.073 183.668 204.378C173.56 204.796 164.06 209.278 157.182 216.685L20 364.711C44.4723 363.799 422.159 349.213 682.765 226.903C795.247 173.952 886.03 100.87 917 0.210938H752.078C746.454 0.210938 741.362 2.94581 738.018 7.46598V7.42801Z" fill="#005B59"/>
        <path d="M938 238.039C858.917 298.133 754.18 350.477 638 393.211L682.183 226.91C794.347 173.958 884.874 100.873 915.757 0.210938L938 238.077V238.039Z" fill="#00726C"/>
        <path d="M1377.5 729.211H984.529L956 427.69C1040.98 374.349 1123.18 307.653 1180.23 228.211L1377.5 729.211Z" fill="#008E8A"/>
        <path d="M1181 228.795C1123.76 307.974 1041.3 374.482 956.049 427.711L938 237.787C1030.73 168.51 1088.88 88.3819 1090.75 0.210938L1181 228.795Z" fill="#34AD96"/>
        <path d="M956 427.754C776.645 541.334 584 597.211 584 597.211L638.03 393.003C638.333 393.003 638.333 392.698 638.333 392.698C754.42 349.877 859.072 297.427 938.091 237.211L956 427.754Z" fill="#008E8A"/>
    </g>
    <defs>
        <clipPath id="clip0_262_432">
          <rect width="2043" height="733.5" fill="white" transform="translate(-301 0.210938)"/>
        </clipPath>
    </defs>
</svg>