<svg width="296" height="28" viewBox="0 0 296 28" fill="none" xmlns="http://www.w3.org/2000/svg">
<path d="M55.3705 14.5238H44.3282C44.6212 17.6562 47.1113 19.4816 50.4691 19.4816C52.0916 19.4816 53.5113 19.1661 54.3789 18.9069L54.5254 18.9633V20.8788C53.7141 21.1717 51.9451 21.521 50.2324 21.521C45.455 21.521 42.2324 18.3886 42.2324 13.8928C42.2324 9.37451 45.6578 6.38859 49.4212 6.38859C53.455 6.38859 55.562 9.1717 55.562 12.5633C55.5733 13.3069 55.4268 14.1745 55.3705 14.5238ZM53.4775 12.1802C53.4775 10.0393 51.7986 8.41677 49.3085 8.41677C46.8409 8.41677 44.8127 10.2421 44.3845 12.8224C45.1057 12.6534 46.1874 12.5633 47.4268 12.5633H53.455C53.4775 12.4393 53.4775 12.2928 53.4775 12.1802Z" fill="#004B4B"/>
<path d="M72.0912 0V21.2282H71.0208L70.3786 18.8846C69.8265 20.1353 68.0011 21.5212 65.1842 21.5212C61.2743 21.5212 58.4912 18.6254 58.4912 14.2198C58.4912 9.2958 61.5898 6.38875 66.1194 6.38875C67.7983 6.38875 69.218 6.73805 70.0631 7.10988V0.0112679H72.0912V0ZM70.0631 15.3916V9.10425C69.218 8.75495 67.7757 8.40565 66.2659 8.40565C62.7842 8.40565 60.587 10.6366 60.587 14.1183C60.587 17.4536 62.5926 19.4817 65.3645 19.4817C68.0011 19.4817 70.0631 17.8592 70.0631 15.3916Z" fill="#004B4B"/>
<path d="M88.9589 6.67039V21.2282H87.8885L87.2463 18.9634C86.6716 20.2141 85.2181 21.5099 82.435 21.5099C78.9871 21.5099 76.835 19.5042 76.835 16.0563V6.67039H78.8969V15.3127C78.8969 18.1183 80.2265 19.4817 82.5477 19.4817C85.1843 19.4817 86.9195 17.9718 86.9195 15.3127V6.67039H88.9589Z" fill="#004B4B"/>
<path d="M92.7559 13.9721C92.7559 9.51007 95.9108 6.37766 100.407 6.37766C101.657 6.37766 102.953 6.61428 103.888 6.98612V8.95795L103.742 9.01429C103.021 8.60865 101.973 8.40584 100.587 8.40584C97.1052 8.40584 94.8516 10.5467 94.8516 13.9157C94.8516 17.3073 97.139 19.4819 100.677 19.4819C101.871 19.4819 103.111 19.2791 104.181 18.9298L104.328 18.9861V20.9242C103.167 21.296 101.838 21.4988 100.531 21.4988C95.9221 21.5101 92.7559 18.4678 92.7559 13.9721Z" fill="#004B4B"/>
<path d="M118.874 11.8309V21.2168H117.804L117.161 18.9295C116.609 20.2929 115.077 21.5098 112.001 21.5098C108.958 21.5098 106.604 20.0563 106.604 16.9915C106.604 14.1182 108.665 12.4957 112.282 12.4957H116.857V12.0901C116.857 9.76893 115.494 8.40554 112.744 8.40554C110.885 8.40554 108.711 8.81118 107.933 9.0478L107.787 8.99146V7.05343C108.542 6.81681 110.829 6.38864 112.947 6.38864C116.699 6.37737 118.874 8.38301 118.874 11.8309ZM116.88 15.4816V14.4337H112.215C109.927 14.4337 108.711 15.3351 108.711 16.9802C108.711 18.6253 110.108 19.5605 112.158 19.5605C115.336 19.5718 116.88 17.7464 116.88 15.4816Z" fill="#004B4B"/>
<path d="M130.559 19.3918V21.3298C130.097 21.4199 129.489 21.4988 128.384 21.4988C125.196 21.4988 123.201 19.9326 123.201 16.3946V3.5382H125.229V6.92975C125.872 6.81708 126.942 6.6706 128.069 6.6706H130.21V8.69877H125.218V16.203C125.218 18.4678 126.412 19.4819 128.497 19.4819C129.342 19.4819 129.883 19.4256 130.412 19.3354L130.559 19.3918Z" fill="#004B4B"/>
<path d="M133.691 2.44506C133.691 1.63379 134.3 1.05914 135.111 1.05914C135.922 1.05914 136.508 1.63379 136.508 2.44506C136.508 3.22252 135.956 3.80844 135.111 3.80844C134.21 3.79717 133.691 3.18872 133.691 2.44506ZM134.097 6.67042H136.159V21.2282H134.097V6.67042Z" fill="#004B4B"/>
<path d="M140.125 13.9492C140.125 9.54353 143.37 6.38859 147.607 6.38859C152.012 6.38859 154.908 9.78015 154.908 13.9266C154.908 18.2421 151.888 21.521 147.517 21.521C143.291 21.5098 140.125 18.2985 140.125 13.9492ZM152.824 13.9492C152.824 10.7266 150.739 8.41676 147.573 8.41676C144.418 8.41676 142.21 10.7379 142.21 13.9492C142.21 17.1041 144.328 19.4816 147.539 19.4816C150.762 19.4816 152.824 17.1041 152.824 13.9492Z" fill="#004B4B"/>
<path d="M170.852 11.8309V21.2168H168.823V12.5746C168.823 9.70132 167.437 8.40554 165.082 8.40554C162.412 8.40554 160.79 10.0281 160.79 12.5746V21.2168H158.728V6.67033H159.798L160.44 8.93512C160.959 7.75202 162.356 6.38864 165.308 6.38864C168.711 6.37737 170.852 8.38301 170.852 11.8309Z" fill="#004B4B"/>
<path d="M194.92 11.9437V21.3296H193.849L193.207 19.0423C192.655 20.4057 191.123 21.6226 188.047 21.6226C185.004 21.6226 182.649 20.1691 182.649 17.1043C182.649 14.231 184.711 12.6085 188.328 12.6085H192.903V12.2029C192.903 9.88172 191.54 8.51834 188.79 8.51834C186.931 8.51834 184.756 8.92397 183.979 9.16059L183.833 9.10425V7.16622C184.587 6.9296 186.875 6.50143 188.993 6.50143C192.745 6.49016 194.92 8.4958 194.92 11.9437ZM192.914 15.5944V14.5465H188.249C185.962 14.5465 184.745 15.4479 184.745 17.093C184.745 18.7493 186.142 19.6733 188.193 19.6733C191.382 19.6846 192.914 17.8592 192.914 15.5944Z" fill="#004B4B"/>
<path d="M211.731 11.9437V21.3296H209.703V12.6874C209.703 9.81412 208.317 8.51834 205.962 8.51834C203.292 8.51834 201.669 10.1409 201.669 12.6874V21.3296H199.607V6.78312H200.678L201.32 9.04792C201.838 7.86482 203.236 6.50143 206.188 6.50143C209.579 6.49016 211.731 8.4958 211.731 11.9437Z" fill="#004B4B"/>
<path d="M227.551 11.9437V21.3296H226.48L225.838 19.0423C225.286 20.4057 223.754 21.6226 220.677 21.6226C217.635 21.6226 215.28 20.1691 215.28 17.1043C215.28 14.231 217.342 12.6085 220.959 12.6085H225.534V12.2029C225.534 9.88172 224.17 8.51834 221.421 8.51834C219.562 8.51834 217.387 8.92397 216.61 9.16059L216.463 9.10425V7.16622C217.218 6.9296 219.506 6.50143 221.624 6.50143C225.387 6.49016 227.551 8.4958 227.551 11.9437ZM225.556 15.5944V14.5465H220.892C218.604 14.5465 217.387 15.4479 217.387 17.093C217.387 18.7493 218.785 19.6733 220.835 19.6733C224.024 19.6846 225.556 17.8592 225.556 15.5944Z" fill="#004B4B"/>
<path d="M232.17 0.112793H234.232V21.3297H232.17V0.112793Z" fill="#004B4B"/>
<path d="M251.122 6.78285L242.57 27.9998H240.452L243.438 20.7773L237.026 6.77158H239.257L244.452 18.2758L248.97 6.77158H251.122V6.78285Z" fill="#004B4B"/>
<path d="M261.478 19.5039V21.442C261.016 21.5321 260.407 21.611 259.303 21.611C256.114 21.611 254.12 20.0448 254.12 16.5067V3.65038H256.148V7.04194C256.791 6.92926 257.861 6.78278 258.988 6.78278H261.129V8.81096H256.137V16.3152C256.137 18.58 257.331 19.5941 259.416 19.5941C260.261 19.5941 260.802 19.5377 261.331 19.4476L261.478 19.5039Z" fill="#004B4B"/>
<path d="M264.599 2.54632C264.599 1.73505 265.207 1.1604 266.018 1.1604C266.83 1.1604 267.416 1.73505 267.416 2.54632C267.416 3.32378 266.863 3.9097 266.018 3.9097C265.128 3.9097 264.599 3.30125 264.599 2.54632ZM265.004 6.78295H267.066V21.3295H265.004V6.78295Z" fill="#004B4B"/>
<path d="M271.044 14.0842C271.044 9.62225 274.199 6.48985 278.695 6.48985C279.945 6.48985 281.241 6.72647 282.176 7.0983V9.07014L282.03 9.12647C281.309 8.72084 280.261 8.51802 278.875 8.51802C275.393 8.51802 273.14 10.6589 273.14 14.0279C273.14 17.4195 275.427 19.5941 278.965 19.5941C280.159 19.5941 281.399 19.3913 282.469 19.042L282.616 19.0983V21.0364C281.455 21.4082 280.126 21.611 278.819 21.611C274.199 21.6223 271.044 18.58 271.044 14.0842Z" fill="#004B4B"/>
<path d="M285.274 21.0479V19.1099L285.421 19.0535C286.581 19.4028 288.294 19.6056 289.86 19.6056C291.945 19.6056 293.049 18.907 293.049 17.6676C293.049 16.4732 292.587 16.0676 289.398 14.6479C286.153 13.1944 285.365 12.1014 285.365 10.4451C285.365 7.97744 287.224 6.50138 290.322 6.50138C291.573 6.50138 293.274 6.76054 294.412 7.10984V9.08167L294.266 9.13801C293.105 8.78871 291.224 8.52956 290.097 8.52956C288.328 8.52956 287.46 9.22815 287.46 10.3887C287.46 11.2901 287.922 11.8986 290.886 13.1944C294.311 14.6704 295.145 15.7183 295.145 17.5437C295.145 20.1803 293.229 21.6338 289.815 21.6338C288.339 21.6225 286.367 21.3634 285.274 21.0479Z" fill="#004B4B"/>
<path d="M21.1157 1.18865C20.7847 1.01208 20.2219 0.835515 19.4384 0.68102C19.019 0.581702 18.5997 0.504455 18.1362 0.438243C17.9707 0.416172 17.7941 0.394102 17.6286 0.383066C17.5624 0.372031 17.4962 0.372031 17.4299 0.372031L17.2534 0.34996C17.1761 0.338925 17.0989 0.338925 17.0216 0.338925C16.812 0.327889 16.5913 0.316854 16.3816 0.316854H13.9869L13.689 0.305818C13.4793 0.305818 13.2476 0.305818 12.9937 0.294783C12.3978 0.283747 11.7247 0.261677 11.1619 0.327888L10.9191 0.360994C10.6763 0.3941 10.4336 0.449276 10.2349 0.526523C4.33102 2.12665 0.214844 7.3905 0.214844 13.3385C0.214844 18.8672 3.69097 23.8883 8.83343 25.8305C9.56176 26.2168 11.7026 26.7023 13.071 26.7023H16.3926C16.6133 26.7023 16.8451 26.7023 17.0989 26.7133H17.1982C17.4299 26.7133 17.6617 26.7244 17.8934 26.7244C18.5335 26.7244 18.9639 26.7023 19.2949 26.6361C25.3643 25.4995 29.7674 20.048 29.7674 13.6806C29.7454 8.174 26.2803 3.15293 21.1157 1.18865ZM22.1641 20.3791C21.9655 20.0039 21.7006 19.6618 21.3916 19.3638C20.586 18.5693 19.5046 18.1279 18.3459 18.1279H18.3017L14.3401 18.2272C14.1745 18.2382 14.009 18.2382 13.8214 18.2382C11.7688 18.2161 10.3894 17.3223 9.74936 16.4505C9.70522 16.3843 9.66108 16.3291 9.6059 16.2298C9.51762 16.0753 9.45141 15.9318 9.40726 15.7773C9.25277 15.2476 9.37416 14.8724 9.76039 14.6407L9.83764 14.5966C10.0583 14.4862 10.3453 14.42 10.6653 14.409L17.7831 14.3979L18.1583 14.3427C18.6769 14.2986 19.1294 14.2324 19.5156 14.1551C20.2219 14.0669 20.8288 13.8903 21.2923 13.6144C21.3916 13.5703 21.4909 13.5372 21.5792 13.493C21.6234 13.471 21.6785 13.4489 21.7227 13.4268L21.7889 13.3937C21.9103 13.3275 22.0317 13.2613 22.1531 13.1951C22.2082 13.162 22.2745 13.1289 22.3296 13.0958C22.4952 12.9964 22.6607 12.8861 22.8041 12.7647L22.8593 12.7206C23.0028 12.6102 23.1352 12.4888 23.2676 12.3674L23.3449 12.2902C23.6318 12.0033 23.8856 11.6943 24.0953 11.3522L24.1284 11.286C24.3381 10.9439 24.5036 10.5687 24.636 10.1824L24.6691 10.0831C24.7905 9.69688 24.8788 9.28857 24.9229 8.85819L24.934 8.71473C24.956 8.50506 24.9671 8.28436 24.9671 8.06365C24.9671 7.01529 24.7684 5.97797 24.3712 5.0179C26.7658 7.236 28.1673 10.3811 28.1673 13.6696C28.1673 17.8851 25.9492 21.7585 22.44 23.789C22.5945 23.3476 22.6717 22.8731 22.6717 22.3985C22.6828 21.7033 22.5062 20.9971 22.1641 20.3791ZM12.4972 25.0912C12.3537 25.0801 12.2102 25.0581 12.0668 25.047L12.0116 25.036C11.1619 24.9256 10.3232 24.7049 9.50658 24.407C7.763 23.2703 6.70361 21.4385 6.57119 19.3749C6.56015 19.2424 6.56015 19.099 6.56015 18.9555C6.56015 18.779 6.57119 18.6134 6.58222 18.4589C6.59326 18.3927 6.59326 18.3265 6.60429 18.2603C6.61533 18.1941 6.62637 18.1389 6.6374 18.0396C6.79189 17.1457 7.17813 16.4064 7.81818 15.7884C7.82922 15.8436 7.82922 15.8877 7.84025 15.9429C7.86232 16.0201 7.87336 16.1084 7.89543 16.1857L7.9175 16.2519C7.9506 16.3512 7.98371 16.4505 8.02785 16.5609L8.06096 16.6381C8.1051 16.7264 8.14924 16.8257 8.19338 16.914L8.2927 17.0905C8.31477 17.1237 8.33684 17.1678 8.35891 17.2009L8.46927 17.3554C8.52444 17.4216 8.56858 17.4989 8.64583 17.5871L8.73411 17.6975C8.76722 17.7306 8.80032 17.7637 8.8555 17.8299C9.0431 18.0396 9.25278 18.2272 9.48452 18.4038L9.59487 18.481C9.66108 18.5362 9.73833 18.5803 9.80454 18.6355C9.85972 18.6686 9.91489 18.7127 9.97007 18.7458C10.0363 18.79 10.0915 18.8231 10.1577 18.8562C10.257 18.9114 10.3563 18.9666 10.4667 19.0217L10.5439 19.0659C10.9964 19.2866 11.4929 19.4742 12.0447 19.5956C12.2102 19.6397 12.3868 19.6728 12.6075 19.7059C12.7841 19.728 12.9606 19.7501 13.1924 19.7721C13.369 19.7832 13.5455 19.7942 13.7221 19.7942H13.7993C13.998 19.7942 14.2076 19.7942 14.4063 19.7832L18.3459 19.6838C19.0742 19.6618 19.7805 19.9487 20.2991 20.4674C20.8288 20.986 21.1157 21.6702 21.1157 22.4096C21.1157 23.7007 20.1998 24.8153 18.9418 25.0691C18.7652 25.1022 18.5776 25.1243 18.39 25.1243H13.5676C13.38 25.1243 13.2034 25.1132 13.0158 25.1132C12.9055 25.1022 12.8061 25.1022 12.6406 25.0912H12.4972ZM7.78507 6.66217C7.98371 7.03737 8.24856 7.37946 8.55755 7.67742C9.36312 8.47196 10.4336 8.91337 11.5702 8.91337L15.6202 8.81406C18.0921 8.6706 19.5818 9.66378 20.1336 10.1162L20.3102 10.2818L20.4867 10.4583C20.7295 10.7342 20.895 11.0101 20.9723 11.2639C21.0054 11.3743 21.0164 11.4736 21.0164 11.606C21.0054 11.7274 20.9723 11.8377 20.884 11.9591C20.7957 12.0695 20.6743 12.1688 20.5529 12.246C20.1446 12.4005 19.7032 12.533 19.1846 12.6323L18.0259 12.7868C17.772 12.8088 17.5182 12.8199 17.2975 12.8309H13.0931C12.7841 12.8309 12.4641 12.8199 12.144 12.8088C11.184 12.7868 10.2791 12.7537 9.70522 12.9523C9.12035 13.1509 8.57962 13.3937 8.09407 13.6696C6.0746 14.729 5.00418 16.5608 5.00418 18.9555C5.00418 20.0039 5.20281 21.0302 5.58905 21.9902C3.19439 19.7721 1.80393 16.6381 1.80393 13.3385C1.80393 9.2665 3.95582 5.5476 7.46505 3.40674C7.3547 3.79298 7.29952 4.19025 7.29952 4.59856C7.26641 5.32689 7.44298 6.03315 7.78507 6.66217ZM23.378 8.53817L23.3669 8.67059C23.3559 8.78095 23.3449 8.88027 23.3228 9.02372L23.3118 9.11201C23.2897 9.24443 23.2566 9.36582 23.2235 9.48721L23.1793 9.63067C23.1573 9.70791 23.1242 9.78516 23.1021 9.85137C23.08 9.90655 23.058 9.96173 23.0359 10.0169C23.0028 10.0942 22.9697 10.1604 22.9366 10.2376C22.8924 10.3149 22.8483 10.3921 22.8041 10.4694C22.7821 10.5135 22.749 10.5576 22.7159 10.6018C22.6828 10.657 22.6386 10.7121 22.5945 10.7783L22.5062 10.8887C22.1641 9.59756 20.884 8.39471 19.0742 7.72156C19.019 7.69949 18.9749 7.67741 18.9197 7.66638C18.8425 7.64431 18.7542 7.6112 18.6218 7.5781C18.5335 7.54499 18.4342 7.52292 18.3459 7.50085C18.2576 7.47878 18.1803 7.45671 18.0921 7.44568C17.9817 7.4236 17.8603 7.40153 17.7389 7.37946L17.4851 7.33532C17.3637 7.31325 17.2313 7.30221 17.0989 7.29118L16.8561 7.26911C16.7126 7.25807 16.5802 7.24704 16.4368 7.24704L16.1167 7.236C15.9291 7.236 15.7415 7.24704 15.5539 7.25807L11.6143 7.35739C10.8639 7.33532 10.1797 7.09254 9.66107 6.57388C9.59486 6.50767 9.52865 6.44146 9.47347 6.37525C9.06516 5.87866 8.84446 5.28275 8.84446 4.63167C8.84446 4.12404 8.98792 3.62745 9.2638 3.18604C9.59486 2.65634 10.1025 2.25907 10.7205 2.0494C10.8308 2.01629 10.9412 1.99422 11.0405 1.96112C11.1177 1.93905 11.2171 1.92801 11.3053 1.91698C11.3826 1.90594 11.4709 1.90594 11.5481 1.90594H13.9759L17.5403 1.98319C17.8603 2.01629 18.3679 2.08251 18.8756 2.18182C19.4053 2.30321 19.935 2.45771 20.4426 2.64531C20.4867 2.67841 20.5309 2.71152 20.575 2.73359L20.6302 2.76669C22.3627 4.04679 23.4 6.03315 23.4 8.08572C23.4001 8.22918 23.389 8.38368 23.378 8.53817Z" fill="#004B4B"/>
</svg>
