<svg width="194" height="147" viewBox="0 0 194 147" fill="none" xmlns="http://www.w3.org/2000/svg">
	<g clip-path="url(#clip0_66_4366)">
		<path d="M16.0795 103.096V107.01L15.9029 107.128C15.1313 107.01 14.242 106.893 12.6923 106.893C8.18033 106.893 4.49231 109.738 4.49231 115.551V133.102H0.268097V103.337H2.05325L3.71417 107.963C4.84542 105.118 8.46804 102.743 12.9211 102.743C14.2878 102.743 15.4779 102.92 16.0729 103.096H16.0795Z" fill="#007979" stroke="#007979" stroke-width="0.83" stroke-miterlimit="10"/>
		<path d="M47.0941 103.331V133.096H44.897L43.5892 128.47C42.4056 131.015 39.4303 133.683 33.7283 133.683C26.6596 133.683 22.2589 129.592 22.2589 122.539V103.331H26.4765V120.999C26.4765 126.748 29.2098 129.534 33.9637 129.534C39.3715 129.534 42.9353 126.447 42.9353 120.999V103.331H47.0941Z" fill="#007979" stroke="#007979" stroke-width="0.83" stroke-miterlimit="10"/>
		<path d="M81.6725 113.887V133.096H77.5137V115.427C77.5137 109.555 74.6627 106.887 69.8499 106.887C64.3833 106.887 61.0549 110.208 61.0549 115.427V133.096H56.8372V103.331H59.0344L60.3422 107.957C61.4146 105.523 64.2656 102.737 70.3273 102.737C77.2848 102.737 81.679 106.828 81.679 113.881L81.6725 113.887Z" fill="#007979" stroke="#007979" stroke-width="0.83" stroke-miterlimit="10"/>
		<path d="M87.368 103.331H92.063L99.0729 127.224H99.3083L107.626 103.331H111.785L119.985 127.224H120.22L127.354 103.331H131.99L122.365 133.096H118.206L109.764 109.144H109.529L100.976 133.096H96.7581L87.368 103.331Z" fill="#007979" stroke="#007979" stroke-width="0.83" stroke-miterlimit="10"/>
		<path d="M160.926 113.887V133.096H158.728L157.421 128.411C156.289 131.197 153.144 133.69 146.847 133.69C140.55 133.69 135.796 130.728 135.796 124.438C135.796 118.572 140.014 115.251 147.442 115.251H156.832V114.422C156.832 109.679 154.04 106.893 148.397 106.893C144.591 106.893 140.138 107.722 138.536 108.198L138.235 108.081V104.107C139.778 103.631 144.473 102.743 148.809 102.743C156.473 102.743 160.932 106.834 160.932 113.887H160.926ZM156.826 121.358V119.225H147.259C142.564 119.225 140.073 121.065 140.073 124.438C140.073 127.811 142.924 129.716 147.141 129.716C153.68 129.716 156.826 125.978 156.826 121.358Z" fill="#007979" stroke="#007979" stroke-width="0.83" stroke-miterlimit="10"/>
		<path d="M193.601 103.331L176.077 146.732H171.741L177.862 131.967L164.725 103.331H169.302L179.941 126.871L189.213 103.331H193.608H193.601Z" fill="#007979" stroke="#007979" stroke-width="0.83" stroke-miterlimit="10"/>
		<path d="M116.081 63.4325H79.7762C78.8673 63.4325 78.2068 62.5712 78.4422 61.6969L81.0578 51.9557C81.0578 51.9557 97.9089 47.1079 113.603 37.2426L116.087 63.4325H116.081Z" fill="#1E5DA5"/>
		<path d="M180.732 63.4325H150.3L133.122 19.9132C137.254 14.1193 139.929 7.5751 139.955 0.241411C140.145 0.35233 140.282 0.482823 140.36 0.593741C140.413 0.645939 140.439 0.70466 140.439 0.70466L181.864 61.2794C182.511 62.1928 181.837 63.4325 180.732 63.4325Z" fill="#36BBA6"/>
		<path d="M125.294 0C125.131 7.67949 120.083 14.6609 112.033 20.6961L110.091 0H125.294Z" fill="#2C79AB"/>
		<path d="M139.955 0.241411C139.929 7.56857 137.254 14.1193 133.122 19.9132L125.288 0H139.17C139.497 0 139.765 0.110919 139.955 0.241411Z" fill="#4DC6E7"/>
		<path d="M89.6697 19.724L85.8052 34.1956C85.8052 34.1956 85.8052 34.2217 85.779 34.2217C64.1217 42.1948 37.7367 46.4554 18.8062 45.8356L31.9039 31.7162C34.0357 31.638 66.9597 30.3722 89.6697 19.724Z" fill="#A972AE"/>
		<path d="M85.779 34.2217L81.0513 51.9557C81.0513 51.9557 49.167 63.3477 4.94352 63.3411C4.04113 63.3411 3.56378 62.258 4.17845 61.6056L18.8063 45.8421C37.7368 46.4619 64.1218 42.2013 85.779 34.2282V34.2217Z" fill="#CFB2D1"/>
		<path d="M94.489 0.63289C83.595 15.372 52.9858 17.4795 46.1721 17.7666C45.2893 17.8057 44.4654 18.1907 43.8638 18.8366L31.9105 31.7162C34.0422 31.6379 66.9662 30.3722 89.6763 19.724C99.4783 15.1176 107.391 8.75606 110.091 0H95.7183C95.2279 0 94.7833 0.234887 94.4955 0.63289H94.489Z" fill="#004364"/>
		<path d="M112.033 20.6961C105.121 25.9224 95.9668 30.4766 85.8117 34.1956L89.6763 19.724C99.4783 15.1176 107.391 8.75606 110.091 0L112.033 20.6961Z" fill="#3751A2"/>
		<path d="M150.3 63.4325H116.081L113.596 37.2426C120.998 32.6101 128.152 26.8162 133.122 19.9132L150.3 63.4325Z" fill="#007979"/>
		<path d="M133.122 19.9132C128.152 26.8097 120.998 32.6036 113.596 37.2426L112.027 20.6961C120.076 14.6609 125.124 7.67949 125.288 0L133.122 19.9132Z" fill="#0094C5"/>
		<path d="M113.596 37.2426C97.9089 47.1079 81.0513 51.9557 81.0513 51.9557L85.779 34.2217L85.8052 34.1956C95.9603 30.4766 105.115 25.9224 112.027 20.6961L113.596 37.2426Z" fill="#2070AD"/>
	</g>
	<defs>
		<clipPath id="clip0_66_4366">
			<rect width="194" height="147" fill="white"/>
		</clipPath>
	</defs>
</svg>
